<svg xmlns="http://www.w3.org/2000/svg" xmlns:xlink="http://www.w3.org/1999/xlink" width="153" height="153" viewBox="0 0 153 153">
  <defs>
    <clipPath id="clip-path">
      <ellipse id="Ellipse_31" data-name="Ellipse 31" cx="66.557" cy="66.94" rx="66.557" ry="66.94" transform="translate(121 124)" fill="#dbe3f5"/>
    </clipPath>
  </defs>
  <g id="img" transform="translate(-111 -114)">
    <ellipse id="Ellipse_29" data-name="Ellipse 29" cx="66.555" cy="66.938" rx="66.555" ry="66.938" transform="translate(121 124)" fill="#dbe3f5"/>
    <g id="Mask_Group" data-name="Mask Group">
      <g id="Ellipse_31-2" data-name="Ellipse 31" clip-path="url(#clip-path)">
        <g id="Group_81" data-name="Group 81">
          <path id="Union" d="M177.356,283.269a3.5,3.5,0,0,1,1.282-4.782l37.355-21.567a3.5,3.5,0,0,1,3.5,6.062l-37.355,21.567a3.5,3.5,0,0,1-4.781-1.281Zm-13.451-3.782a3.5,3.5,0,0,1,1.281-4.781l22.423-12.946a3.5,3.5,0,1,1,3.5,6.062l-22.423,12.946a3.5,3.5,0,0,1-4.781-1.282Zm41.949-1.125a3.5,3.5,0,0,1,1.281-4.781l18.187-10.5a3.5,3.5,0,0,1,3.5,6.062l-18.187,10.5a3.5,3.5,0,0,1-4.781-1.281Zm-55.076-2.843a3.5,3.5,0,0,1,1.281-4.781L185.207,251.6a3.5,3.5,0,1,1,3.5,6.061L155.56,276.8a3.5,3.5,0,0,1-4.781-1.281Zm-11.027-5.18a3.5,3.5,0,0,1,1.281-4.782l6.266-3.617A3.5,3.5,0,0,1,150.8,268l-6.266,3.617a3.5,3.5,0,0,1-4.781-1.281Zm-7.8-7.043a3.5,3.5,0,0,1,1.282-4.782l39.379-22.735a3.5,3.5,0,0,1,3.5,6.062l-39.379,22.735a3.5,3.5,0,0,1-4.782-1.281Zm101.618-.934a3.5,3.5,0,0,1,1.281-4.781l27.611-15.942a3.5,3.5,0,0,1,3.5,6.062l-27.611,15.941a3.5,3.5,0,0,1-4.781-1.281Zm-78.024-1.141a3.5,3.5,0,0,1,1.281-4.781l77.943-45a3.5,3.5,0,0,1,3.5,6.062l-77.943,45a3.5,3.5,0,0,1-4.781-1.282Zm40.311-.179a3.5,3.5,0,0,1,1.281-4.781l30.311-17.5a3.5,3.5,0,0,1,3.5,6.062l-30.311,17.5a3.5,3.5,0,0,1-4.781-1.281Zm-74.56-3.141a3.5,3.5,0,0,1,1.281-4.781l13.856-8a3.5,3.5,0,1,1,3.5,6.061l-13.856,8a3.5,3.5,0,0,1-4.781-1.281Zm102.942-1.7a3.5,3.5,0,0,1,1.282-4.781l31.177-18a3.5,3.5,0,0,1,3.5,6.062l-31.177,18a3.5,3.5,0,0,1-4.782-1.282Zm-30.785-5.32a3.5,3.5,0,0,1,1.282-4.782l5.2-3a3.5,3.5,0,0,1,3.5,6.062l-5.2,3a3.5,3.5,0,0,1-4.781-1.281Zm-77.158-1.642a3.5,3.5,0,0,1,1.282-4.781l45.033-26a3.5,3.5,0,0,1,3.5,6.062l-45.033,26a3.5,3.5,0,0,1-4.782-1.282Zm28.382-4.839a3.5,3.5,0,0,1,1.282-4.781l45.033-26a3.5,3.5,0,1,1,3.5,6.061l-45.033,26a3.5,3.5,0,0,1-4.782-1.281Zm63.5-2.02a3.5,3.5,0,0,1,1.282-4.781l25.115-14.5a3.5,3.5,0,0,1,3.5,6.062l-25.115,14.5a3.5,3.5,0,0,1-4.782-1.282Zm-96.88-1.8a3.5,3.5,0,0,1,1.281-4.781l45.033-26a3.5,3.5,0,1,1,3.5,6.061l-45.033,26a3.5,3.5,0,0,1-4.781-1.281Zm124.4-2.539a3.5,3.5,0,0,1,1.282-4.781l35.213-20.33a3.5,3.5,0,1,1,3.5,6.062l-35.213,20.331a3.5,3.5,0,0,1-4.782-1.282Zm-54.837-2.981a3.5,3.5,0,0,1,1.282-4.781l18.186-10.5a3.5,3.5,0,0,1,3.5,6.062l-18.187,10.5a3.5,3.5,0,0,1-4.781-1.282ZM264.94,232.7a3.5,3.5,0,0,1,1.281-4.781l3.849-2.222a3.5,3.5,0,0,1,3.5,6.062l-3.849,2.222a3.5,3.5,0,0,1-4.781-1.282Zm-158.646-.782a3.5,3.5,0,0,1,1.282-4.781l14.722-8.5a3.5,3.5,0,1,1,3.5,6.061l-14.722,8.5a3.5,3.5,0,0,1-4.782-1.282Zm-5-8.66a3.5,3.5,0,0,1,1.281-4.781l45.033-26a3.5,3.5,0,0,1,3.5,6.062l-45.033,26a3.5,3.5,0,0,1-4.781-1.281Zm141.521-.878A3.5,3.5,0,0,1,244.1,217.6l30.247-17.464a3.5,3.5,0,0,1,3.5,6.062L247.6,223.662a3.5,3.5,0,0,1-4.782-1.281Zm-34.249-3.321a3.5,3.5,0,0,1,1.282-4.781l64.9-37.471a3.5,3.5,0,0,1,3.5,6.061l-64.9,37.471a3.5,3.5,0,0,1-4.782-1.282Zm-78.024-1.14a3.5,3.5,0,0,1,1.282-4.781l77.942-45a3.5,3.5,0,1,1,3.5,6.062l-77.942,45a3.5,3.5,0,0,1-4.782-1.281Zm40.311-.18a3.5,3.5,0,0,1,1.281-4.781l30.311-17.5a3.5,3.5,0,1,1,3.5,6.061l-30.311,17.5a3.5,3.5,0,0,1-4.781-1.282ZM96.295,214.6a3.5,3.5,0,0,1,1.282-4.781l13.856-8a3.5,3.5,0,1,1,3.5,6.062l-13.856,8a3.5,3.5,0,0,1-4.781-1.282Zm102.943-1.7a3.5,3.5,0,0,1,1.281-4.781l31.177-18a3.5,3.5,0,0,1,3.5,6.062l-31.177,18a3.5,3.5,0,0,1-4.781-1.281Zm43.774-2.18a3.5,3.5,0,0,1,1.282-4.781l31.964-18.454a3.5,3.5,0,0,1,3.5,6.062L247.793,212a3.5,3.5,0,0,1-4.782-1.282Zm-77.158-1.641a3.5,3.5,0,0,1,1.282-4.781l47.632-27.5a3.5,3.5,0,0,1,3.5,6.062l-47.632,27.5a3.5,3.5,0,0,1-4.782-1.281Zm-69.311-6.171a3.5,3.5,0,0,1,1.281-4.781l39.785-22.97a3.5,3.5,0,1,1,3.5,6.061L101.324,204.19a3.5,3.5,0,0,1-4.781-1.282Zm23.135-1.81a3.5,3.5,0,0,1,1.281-4.781l45.033-26a3.5,3.5,0,0,1,3.5,6.062l-45.033,26a3.5,3.5,0,0,1-4.781-1.282Zm91.014-6.359a3.5,3.5,0,0,1,1.281-4.781l59.755-34.5a3.5,3.5,0,1,1,3.5,6.062l-59.756,34.5a3.5,3.5,0,0,1-4.781-1.281Zm-54.838-2.981a3.5,3.5,0,0,1,1.282-4.781l18.186-10.5a3.5,3.5,0,0,1,3.5,6.062l-18.186,10.5a3.5,3.5,0,0,1-4.782-1.281ZM239.94,189.4a3.5,3.5,0,0,1,1.282-4.781l32.908-19a3.5,3.5,0,0,1,3.5,6.062l-32.909,19a3.5,3.5,0,0,1-4.782-1.281Zm-138.923-.622A3.5,3.5,0,0,1,102.3,184l47.631-27.5a3.5,3.5,0,1,1,3.5,6.062l-47.631,27.5a3.5,3.5,0,0,1-4.782-1.281ZM94.9,180.762a3.5,3.5,0,0,1,1.282-4.781l1.115-.644a3.5,3.5,0,0,1,3.5,6.062l-1.115.644a3.5,3.5,0,0,1-4.782-1.282Zm128.11-4.683a3.5,3.5,0,0,1,1.281-4.781l5.2-3a3.5,3.5,0,0,1,3.5,6.062l-5.2,3a3.5,3.5,0,0,1-4.781-1.282Zm-39.445-.32a3.5,3.5,0,0,1,1.282-4.781L256.4,129.667a3.5,3.5,0,1,1,3.5,6.062l-71.552,41.31a3.5,3.5,0,0,1-4.782-1.281Zm-78.023-1.141a3.5,3.5,0,0,1,1.281-4.781l77.942-45a3.5,3.5,0,1,1,3.5,6.062l-77.942,45a3.5,3.5,0,0,1-4.781-1.282Zm40.31-.179a3.5,3.5,0,0,1,1.282-4.781l30.31-17.5a3.5,3.5,0,1,1,3.5,6.062l-30.31,17.5a3.5,3.5,0,0,1-4.782-1.281Zm28.383-4.84a3.5,3.5,0,0,1,1.281-4.781l31.177-18a3.5,3.5,0,0,1,3.5,6.062l-31.177,18a3.5,3.5,0,0,1-4.781-1.282Zm63.5-2.019a3.5,3.5,0,0,1,1.282-4.782l25.115-14.5a3.5,3.5,0,0,1,3.5,6.062l-25.115,14.5a3.5,3.5,0,0,1-4.782-1.281Zm-19.722-.16a3.5,3.5,0,0,1,1.281-4.782l45.033-26a3.5,3.5,0,0,1,3.5,6.062l-45.033,26a3.5,3.5,0,0,1-4.781-1.281ZM99.1,166.791a3.5,3.5,0,0,1,1.281-4.781l22.227-12.833a3.5,3.5,0,1,1,3.5,6.062l-22.227,12.832a3.5,3.5,0,0,1-4.781-1.281ZM94.677,157.8a3.5,3.5,0,0,1,1.281-4.781l45.033-26a3.5,3.5,0,1,1,3.5,6.062l-45.033,26a3.5,3.5,0,0,1-4.781-1.281Zm63.5-2.02A3.5,3.5,0,0,1,159.456,151l25.115-14.5a3.5,3.5,0,1,1,3.5,6.062l-25.114,14.5a3.5,3.5,0,0,1-4.781-1.282Zm27.517-4.34a3.5,3.5,0,0,1,1.281-4.781l51.579-29.779a3.5,3.5,0,0,1,3.5,6.062L190.472,152.72a3.5,3.5,0,0,1-4.781-1.282Zm-54.837-2.981a3.5,3.5,0,0,1,1.281-4.781l18.186-10.5a3.5,3.5,0,1,1,3.5,6.062l-18.186,10.5a3.5,3.5,0,0,1-4.781-1.282ZM214.94,146.1a3.5,3.5,0,0,1,1.282-4.781l31.785-18.351a3.5,3.5,0,0,1,3.5,6.062L219.722,147.38a3.5,3.5,0,0,1-4.782-1.282Zm-22.124-10.32A3.5,3.5,0,0,1,194.1,131l35.923-20.74a3.5,3.5,0,1,1,3.5,6.062L197.6,137.059a3.5,3.5,0,0,1-4.781-1.281Zm-34.249-3.321a3.5,3.5,0,0,1,1.281-4.781l46.71-26.968a3.5,3.5,0,1,1,3.5,6.062l-46.71,26.969a3.5,3.5,0,0,1-4.781-1.282Zm-37.714-1.32a3.5,3.5,0,0,1,1.282-4.781l30.311-17.5a3.5,3.5,0,1,1,3.5,6.062l-30.311,17.5a3.5,3.5,0,0,1-4.782-1.282Zm28.383-4.839a3.5,3.5,0,0,1,1.281-4.781l31.177-18a3.5,3.5,0,1,1,3.5,6.062l-31.177,18a3.5,3.5,0,0,1-4.781-1.281Zm43.775-2.18a3.5,3.5,0,0,1,1.281-4.781l25.083-14.481a3.5,3.5,0,1,1,3.5,6.062L197.793,125.4a3.5,3.5,0,0,1-4.781-1.282Zm-32.321-15.98a3.5,3.5,0,0,1,1.281-4.782l7.768-4.485a3.5,3.5,0,1,1,3.5,6.062l-7.768,4.485a3.5,3.5,0,0,1-4.781-1.281Zm29.249-5.34a3.5,3.5,0,0,1,1.281-4.782l4.448-2.568a3.5,3.5,0,0,1,3.5,6.062l-4.448,2.568a3.5,3.5,0,0,1-4.781-1.281Z" fill="#fff"/>
        </g>
      </g>
    </g>
    <g id="ant-design:comment-outlined" transform="translate(158 161)">
      <path id="Vector" d="M18.809,0a2.356,2.356,0,0,0-2.4,2.344,2.356,2.356,0,0,0,2.4,2.344,2.331,2.331,0,0,0,2.285-2.344A2.331,2.331,0,0,0,18.809,0ZM2.4,0A2.356,2.356,0,0,0,0,2.344,2.356,2.356,0,0,0,2.4,4.688,2.331,2.331,0,0,0,4.688,2.344,2.331,2.331,0,0,0,2.4,0Z" transform="translate(14.766 24.668)"/>
      <path id="Vector-2" data-name="Vector" d="M48.632,14.768A20.152,20.152,0,0,0,37.558,7.151v.006A21.507,21.507,0,0,0,4.452,34.573l.047,7.77a1.748,1.748,0,0,0,.088.551,1.872,1.872,0,0,0,2.35,1.225l7.418-2.338a21.5,21.5,0,0,0,6.006,1.207l-.029.023a20.361,20.361,0,0,0,18.34,2.871l7.447,2.426a1.939,1.939,0,0,0,.58.094,1.873,1.873,0,0,0,1.875-1.875V38.675A20.266,20.266,0,0,0,48.632,14.768ZM15.175,37.62l-.7-.293-5.8,1.816-.059-6.094-.469-.527a17.343,17.343,0,1,1,7.031,5.1Zm29.59-1-.469.586.059,6.094L38.612,41.37l-.7.293a16.182,16.182,0,0,1-10.02.41l-.012-.006A21.474,21.474,0,0,0,41.566,13.632l.035.023a16.011,16.011,0,0,1,3.164,22.969Z" transform="translate(3.751 5.447)"/>
      <path id="Vector-3" data-name="Vector" d="M2.4,0A2.356,2.356,0,0,0,0,2.344,2.356,2.356,0,0,0,2.4,4.688,2.331,2.331,0,0,0,4.688,2.344,2.331,2.331,0,0,0,2.4,0Z" transform="translate(22.969 24.668)"/>
    </g>
    <g id="Ellipse_30" data-name="Ellipse 30" transform="translate(111 114)" fill="none" stroke="#dbe3f5" stroke-width="4">
      <circle cx="76.5" cy="76.5" r="76.5" stroke="none"/>
      <circle cx="76.5" cy="76.5" r="74.5" fill="none"/>
    </g>
  </g>
</svg>