<svg xmlns="http://www.w3.org/2000/svg" xmlns:xlink="http://www.w3.org/1999/xlink" width="200" height="200" viewBox="0 0 200 200">
  <defs>
    <clipPath id="clip-path">
      <ellipse id="Ellipse_31" data-name="Ellipse 31" cx="87" cy="87.5" rx="87" ry="87.5" transform="translate(101 127)" fill="#dbe3f5"/>
    </clipPath>
  </defs>
  <g id="Group_2" data-name="Group 2" transform="translate(-88 -114)">
    <g id="img">
      <ellipse id="Ellipse_29" data-name="Ellipse 29" cx="87" cy="87.5" rx="87" ry="87.5" transform="translate(101 127)" fill="#dbe3f5"/>
      <g id="Mask_Group" data-name="Mask Group">
        <g id="Ellipse_31-2" data-name="Ellipse 31" clip-path="url(#clip-path)">
          <g id="Group_81" data-name="Group 81">
            <path id="Union" d="M177.356,306.268a3.5,3.5,0,0,1,1.281-4.781l37.355-21.567a3.5,3.5,0,0,1,3.5,6.061l-37.355,21.567a3.5,3.5,0,0,1-4.781-1.281Zm-13.451-3.781a3.5,3.5,0,0,1,1.281-4.781l22.423-12.947a3.5,3.5,0,1,1,3.5,6.062l-22.423,12.946a3.5,3.5,0,0,1-4.781-1.281Zm41.949-1.126a3.5,3.5,0,0,1,1.281-4.781l18.187-10.5a3.5,3.5,0,0,1,3.5,6.062l-18.186,10.5a3.5,3.5,0,0,1-4.781-1.282Zm-55.076-2.843a3.5,3.5,0,0,1,1.281-4.781L185.207,274.6a3.5,3.5,0,1,1,3.5,6.062L155.56,299.8a3.5,3.5,0,0,1-4.781-1.282Zm-11.027-5.18a3.5,3.5,0,0,1,1.281-4.781l6.265-3.617A3.5,3.5,0,1,1,150.8,291l-6.265,3.617a3.5,3.5,0,0,1-4.781-1.282Zm-7.8-7.043a3.5,3.5,0,0,1,1.282-4.781l39.379-22.735a3.5,3.5,0,0,1,3.5,6.062l-39.38,22.736a3.5,3.5,0,0,1-4.781-1.282Zm101.618-.933a3.5,3.5,0,0,1,1.281-4.782l27.611-15.941a3.5,3.5,0,0,1,3.5,6.062l-27.611,15.941a3.5,3.5,0,0,1-4.781-1.281Zm-78.024-1.141a3.5,3.5,0,0,1,1.281-4.781l77.943-45a3.5,3.5,0,1,1,3.5,6.061l-77.943,45a3.5,3.5,0,0,1-4.781-1.281Zm40.311-.18a3.5,3.5,0,0,1,1.281-4.781l30.311-17.5a3.5,3.5,0,0,1,3.5,6.062l-30.311,17.5a3.5,3.5,0,0,1-4.781-1.282Zm-74.56-3.141a3.5,3.5,0,0,1,1.281-4.781l13.856-8a3.5,3.5,0,1,1,3.5,6.062l-13.856,8a3.5,3.5,0,0,1-4.781-1.282Zm102.942-1.7a3.5,3.5,0,0,1,1.282-4.781l31.177-18a3.5,3.5,0,1,1,3.5,6.061l-31.178,18a3.5,3.5,0,0,1-4.781-1.281Zm-30.785-5.321a3.5,3.5,0,0,1,1.281-4.781l5.2-3a3.5,3.5,0,1,1,3.5,6.061l-5.2,3a3.5,3.5,0,0,1-4.781-1.282Zm-77.158-1.641a3.5,3.5,0,0,1,1.282-4.781l45.033-26a3.5,3.5,0,0,1,3.5,6.062l-45.033,26a3.5,3.5,0,0,1-4.782-1.281Zm28.382-4.84a3.5,3.5,0,0,1,1.282-4.781l45.033-26a3.5,3.5,0,0,1,3.5,6.062l-45.033,26a3.5,3.5,0,0,1-4.782-1.282Zm63.5-2.019a3.5,3.5,0,0,1,1.282-4.781l25.115-14.5a3.5,3.5,0,0,1,3.5,6.062l-25.115,14.5a3.5,3.5,0,0,1-4.782-1.281Zm-96.88-1.8a3.5,3.5,0,0,1,1.281-4.781l45.033-26a3.5,3.5,0,0,1,3.5,6.062l-45.033,26a3.5,3.5,0,0,1-4.781-1.282Zm124.4-2.538a3.5,3.5,0,0,1,1.282-4.781l35.213-20.331a3.5,3.5,0,0,1,3.5,6.062l-35.213,20.33a3.5,3.5,0,0,1-4.782-1.281Zm-54.837-2.981a3.5,3.5,0,0,1,1.281-4.781l18.187-10.5a3.5,3.5,0,0,1,3.5,6.062l-18.187,10.5a3.5,3.5,0,0,1-4.781-1.281ZM264.94,255.7a3.5,3.5,0,0,1,1.281-4.781l3.849-2.223a3.5,3.5,0,0,1,3.5,6.062l-3.849,2.222a3.5,3.5,0,0,1-4.781-1.281Zm-158.646-.782a3.5,3.5,0,0,1,1.282-4.781l14.722-8.5a3.5,3.5,0,0,1,3.5,6.062l-14.723,8.5a3.5,3.5,0,0,1-4.781-1.281Zm-5-8.661a3.5,3.5,0,0,1,1.281-4.781l45.033-26a3.5,3.5,0,0,1,3.5,6.062l-45.033,26a3.5,3.5,0,0,1-4.781-1.282Zm141.521-.878A3.5,3.5,0,0,1,244.1,240.6l30.247-17.463a3.5,3.5,0,1,1,3.5,6.061L247.6,246.662a3.5,3.5,0,0,1-4.782-1.281Zm-34.249-3.321a3.5,3.5,0,0,1,1.282-4.781l64.9-37.471a3.5,3.5,0,0,1,3.5,6.062l-64.9,37.471a3.5,3.5,0,0,1-4.781-1.281Zm-78.024-1.141a3.5,3.5,0,0,1,1.282-4.781l77.942-45a3.5,3.5,0,0,1,3.5,6.062l-77.943,45a3.5,3.5,0,0,1-4.781-1.282Zm40.311-.179a3.5,3.5,0,0,1,1.281-4.781l30.311-17.5a3.5,3.5,0,0,1,3.5,6.062l-30.311,17.5a3.5,3.5,0,0,1-4.781-1.281ZM96.295,237.6a3.5,3.5,0,0,1,1.281-4.781l13.856-8a3.5,3.5,0,1,1,3.5,6.061l-13.856,8a3.5,3.5,0,0,1-4.781-1.281Zm102.942-1.7a3.5,3.5,0,0,1,1.282-4.781l31.177-18a3.5,3.5,0,0,1,3.5,6.062l-31.177,18a3.5,3.5,0,0,1-4.782-1.282Zm43.775-2.179a3.5,3.5,0,0,1,1.282-4.781l31.964-18.454a3.5,3.5,0,0,1,3.5,6.062L247.793,235a3.5,3.5,0,0,1-4.782-1.281Zm-77.158-1.642a3.5,3.5,0,0,1,1.282-4.781l47.632-27.5a3.5,3.5,0,1,1,3.5,6.062l-47.631,27.5a3.5,3.5,0,0,1-4.782-1.282Zm-69.311-6.17a3.5,3.5,0,0,1,1.281-4.782l39.785-22.97a3.5,3.5,0,0,1,3.5,6.062l-39.785,22.97a3.5,3.5,0,0,1-4.781-1.281Zm23.135-1.81a3.5,3.5,0,0,1,1.281-4.781l45.033-26a3.5,3.5,0,1,1,3.5,6.061l-45.033,26a3.5,3.5,0,0,1-4.781-1.281Zm91.013-6.359a3.5,3.5,0,0,1,1.282-4.781l59.755-34.5a3.5,3.5,0,0,1,3.5,6.062l-59.756,34.5a3.5,3.5,0,0,1-4.782-1.282Zm-54.837-2.981a3.5,3.5,0,0,1,1.282-4.781l18.186-10.5a3.5,3.5,0,0,1,3.5,6.062l-18.186,10.5a3.5,3.5,0,0,1-4.782-1.282ZM239.94,212.4a3.5,3.5,0,0,1,1.282-4.781l32.908-19a3.5,3.5,0,0,1,3.5,6.062l-32.909,19a3.5,3.5,0,0,1-4.781-1.282Zm-138.923-.622A3.5,3.5,0,0,1,102.3,207l47.631-27.5a3.5,3.5,0,1,1,3.5,6.062L105.8,213.06a3.5,3.5,0,0,1-4.781-1.282ZM94.9,203.763a3.5,3.5,0,0,1,1.282-4.782l1.115-.643a3.5,3.5,0,0,1,3.5,6.062l-1.116.644a3.5,3.5,0,0,1-4.781-1.281Zm128.11-4.683a3.5,3.5,0,0,1,1.281-4.782l5.2-3a3.5,3.5,0,0,1,3.5,6.062l-5.2,3a3.5,3.5,0,0,1-4.781-1.281Zm-39.445-.321a3.5,3.5,0,0,1,1.282-4.781L256.4,152.667a3.5,3.5,0,1,1,3.5,6.062L188.348,200.04a3.5,3.5,0,0,1-4.782-1.282Zm-78.024-1.14a3.5,3.5,0,0,1,1.282-4.781l77.942-45a3.5,3.5,0,1,1,3.5,6.062l-77.942,45a3.5,3.5,0,0,1-4.782-1.281Zm40.311-.18a3.5,3.5,0,0,1,1.282-4.781l30.31-17.5a3.5,3.5,0,1,1,3.5,6.061l-30.311,17.5a3.5,3.5,0,0,1-4.781-1.282Zm28.383-4.839a3.5,3.5,0,0,1,1.281-4.781l31.177-18a3.5,3.5,0,0,1,3.5,6.062l-31.177,18a3.5,3.5,0,0,1-4.781-1.281Zm63.5-2.02a3.5,3.5,0,0,1,1.282-4.781l25.115-14.5a3.5,3.5,0,0,1,3.5,6.062l-25.115,14.5a3.5,3.5,0,0,1-4.782-1.282Zm-19.723-.16a3.5,3.5,0,0,1,1.282-4.781l45.033-26a3.5,3.5,0,0,1,3.5,6.062l-45.033,26a3.5,3.5,0,0,1-4.782-1.282ZM99.1,189.79a3.5,3.5,0,0,1,1.281-4.781l22.227-12.832a3.5,3.5,0,0,1,3.5,6.062l-22.227,12.833A3.5,3.5,0,0,1,99.1,189.79ZM94.677,180.8a3.5,3.5,0,0,1,1.281-4.781l45.033-26a3.5,3.5,0,1,1,3.5,6.062l-45.033,26a3.5,3.5,0,0,1-4.781-1.282Zm63.5-2.019A3.5,3.5,0,0,1,159.456,174l25.115-14.5a3.5,3.5,0,1,1,3.5,6.062l-25.114,14.5a3.5,3.5,0,0,1-4.781-1.281Zm27.517-4.34a3.5,3.5,0,0,1,1.281-4.781l51.579-29.779a3.5,3.5,0,1,1,3.5,6.062L190.472,175.72a3.5,3.5,0,0,1-4.781-1.281Zm-54.837-2.981a3.5,3.5,0,0,1,1.281-4.781l18.186-10.5a3.5,3.5,0,1,1,3.5,6.062l-18.186,10.5a3.5,3.5,0,0,1-4.781-1.281ZM214.94,169.1a3.5,3.5,0,0,1,1.282-4.781l31.785-18.352a3.5,3.5,0,1,1,3.5,6.062L219.722,170.38a3.5,3.5,0,0,1-4.782-1.281Zm-22.124-10.32A3.5,3.5,0,0,1,194.1,154l35.923-20.74a3.5,3.5,0,1,1,3.5,6.062L197.6,160.06a3.5,3.5,0,0,1-4.781-1.281Zm-34.249-3.321a3.5,3.5,0,0,1,1.281-4.781l46.71-26.969a3.5,3.5,0,1,1,3.5,6.062l-46.71,26.968a3.5,3.5,0,0,1-4.781-1.281Zm-37.714-1.32a3.5,3.5,0,0,1,1.282-4.781l30.311-17.5a3.5,3.5,0,1,1,3.5,6.062l-30.31,17.5a3.5,3.5,0,0,1-4.782-1.281Zm28.383-4.84a3.5,3.5,0,0,1,1.281-4.781l31.177-18a3.5,3.5,0,1,1,3.5,6.062l-31.177,18a3.5,3.5,0,0,1-4.781-1.282Zm43.775-2.179a3.5,3.5,0,0,1,1.281-4.781l25.083-14.482a3.5,3.5,0,1,1,3.5,6.062L197.793,148.4a3.5,3.5,0,0,1-4.781-1.281Zm-32.321-15.981a3.5,3.5,0,0,1,1.281-4.781l7.768-4.485a3.5,3.5,0,0,1,3.5,6.062l-7.768,4.485a3.5,3.5,0,0,1-4.781-1.282Zm29.249-5.34a3.5,3.5,0,0,1,1.281-4.781l4.448-2.568a3.5,3.5,0,0,1,3.5,6.062l-4.448,2.568a3.5,3.5,0,0,1-4.781-1.282Z" fill="#fff"/>
          </g>
        </g>
      </g>
      <g id="Ellipse_30" data-name="Ellipse 30" transform="translate(88 114)" fill="none" stroke="#dbe3f5" stroke-width="4">
        <circle cx="100" cy="100" r="100" stroke="none"/>
        <circle cx="100" cy="100" r="98" fill="none"/>
      </g>
    </g>
    <g id="Tab_Bar_Item" data-name="Tab Bar Item" transform="translate(134.451 175.002)">
      <g id="heart" transform="translate(17.549 2.998)">
        <path id="Vector" d="M65.525,6.365a18.77,18.77,0,0,0-6.062-4.711,16.283,16.283,0,0,0-14.3,0A18.77,18.77,0,0,0,39.1,6.365l-3.6,4.186L31.9,6.365A17.468,17.468,0,0,0,18.686,0,17.468,17.468,0,0,0,5.473,6.365,23.64,23.64,0,0,0,0,21.727,23.64,23.64,0,0,0,5.473,37.09l3.6,4.186L35.5,72,61.925,41.276l3.6-4.186a22.24,22.24,0,0,0,4.052-7.048,25,25,0,0,0,0-16.629,22.24,22.24,0,0,0-4.052-7.048Z" transform="translate(0 0)" fill="none" stroke="#111" stroke-linecap="round" stroke-linejoin="bevel" stroke-width="4.5"/>
      </g>
    </g>
  </g>
</svg>
